<svg width="430" height="430" viewBox="0 0 430 430" fill="none" xmlns="http://www.w3.org/2000/svg">
<path d="M45.2498 190H114.905L136.189 250L170.243 130L191.527 190H239.473L260.757 250L294.811 130L316.095 190H384.659" stroke="#08A88A" stroke-width="12" stroke-miterlimit="14" stroke-linecap="round" stroke-linejoin="round"/>
<path d="M359.9 230C379.9 210 389.9 183.8 389.9 157.6C389.9 131.4 379.9 105.2 359.9 85.1999C342.9 67.9999 321.3 58.2999 299 55.7999C269.1 52.3999 238 62.1999 215.1 85.1999L215 85.2999L214.9 85.1999C194.9 65.1999 168.7 55.1999 142.5 55.1999C116.3 55.1999 90.1002 65.1999 70.1002 85.1999C30.0002 125.1 30.0002 190 70.0002 230L215 375L359.9 230Z" stroke="#121331" stroke-width="12" stroke-miterlimit="14" stroke-linecap="round" stroke-linejoin="round"/>
</svg>
