<svg id="visual" viewBox="0 0 900 600" width="900" height="600" xmlns="http://www.w3.org/2000/svg" xmlns:xlink="http://www.w3.org/1999/xlink" version="1.1"><rect x="0" y="0" width="900" height="600" fill="#eeeeee"></rect><path d="M0 369L21.5 372C43 375 86 381 128.8 379.2C171.7 377.3 214.3 367.7 257.2 361.8C300 356 343 354 385.8 363.3C428.7 372.7 471.3 393.3 514.2 397.7C557 402 600 390 642.8 385.3C685.7 380.7 728.3 383.3 771.2 381.7C814 380 857 374 878.5 371L900 368L900 601L878.5 601C857 601 814 601 771.2 601C728.3 601 685.7 601 642.8 601C600 601 557 601 514.2 601C471.3 601 428.7 601 385.8 601C343 601 300 601 257.2 601C214.3 601 171.7 601 128.8 601C86 601 43 601 21.5 601L0 601Z" fill="#280b8b"></path><path d="M0 412L21.5 415C43 418 86 424 128.8 430.8C171.7 437.7 214.3 445.3 257.2 443.2C300 441 343 429 385.8 431C428.7 433 471.3 449 514.2 449.3C557 449.7 600 434.3 642.8 432.7C685.7 431 728.3 443 771.2 444.8C814 446.7 857 438.3 878.5 434.2L900 430L900 601L878.5 601C857 601 814 601 771.2 601C728.3 601 685.7 601 642.8 601C600 601 557 601 514.2 601C471.3 601 428.7 601 385.8 601C343 601 300 601 257.2 601C214.3 601 171.7 601 128.8 601C86 601 43 601 21.5 601L0 601Z" fill="#350ca7"></path><path d="M0 455L21.5 452C43 449 86 443 128.8 450C171.7 457 214.3 477 257.2 478C300 479 343 461 385.8 459.7C428.7 458.3 471.3 473.7 514.2 475.3C557 477 600 465 642.8 457.3C685.7 449.7 728.3 446.3 771.2 444.5C814 442.7 857 442.3 878.5 442.2L900 442L900 601L878.5 601C857 601 814 601 771.2 601C728.3 601 685.7 601 642.8 601C600 601 557 601 514.2 601C471.3 601 428.7 601 385.8 601C343 601 300 601 257.2 601C214.3 601 171.7 601 128.8 601C86 601 43 601 21.5 601L0 601Z" fill="#440bc4"></path><path d="M0 523L21.5 517.2C43 511.3 86 499.7 128.8 493.3C171.7 487 214.3 486 257.2 494.7C300 503.3 343 521.7 385.8 526.2C428.7 530.7 471.3 521.3 514.2 515C557 508.7 600 505.3 642.8 509.7C685.7 514 728.3 526 771.2 530.7C814 535.3 857 532.7 878.5 531.3L900 530L900 601L878.5 601C857 601 814 601 771.2 601C728.3 601 685.7 601 642.8 601C600 601 557 601 514.2 601C471.3 601 428.7 601 385.8 601C343 601 300 601 257.2 601C214.3 601 171.7 601 128.8 601C86 601 43 601 21.5 601L0 601Z" fill="#5408e1"></path><path d="M0 538L21.5 540.3C43 542.7 86 547.3 128.8 546.8C171.7 546.3 214.3 540.7 257.2 539.7C300 538.7 343 542.3 385.8 544.5C428.7 546.7 471.3 547.3 514.2 548.3C557 549.3 600 550.7 642.8 550.3C685.7 550 728.3 548 771.2 543.8C814 539.7 857 533.3 878.5 530.2L900 527L900 601L878.5 601C857 601 814 601 771.2 601C728.3 601 685.7 601 642.8 601C600 601 557 601 514.2 601C471.3 601 428.7 601 385.8 601C343 601 300 601 257.2 601C214.3 601 171.7 601 128.8 601C86 601 43 601 21.5 601L0 601Z" fill="#6600ff"></path></svg>