<?xml version="1.0" ?>

<!-- Uploaded to: SVG Repo, www.svgrepo.com, Generator: SVG Repo Mixer Tools -->
<svg width="800px" height="800px" viewBox="0 -12 74.666664 74.666664" id="svg2" version="1.1" xmlns="http://www.w3.org/2000/svg" xmlns:svg="http://www.w3.org/2000/svg">

<defs id="defs6">

<clipPath clipPathUnits="userSpaceOnUse" id="clipPath18">

<path d="M 0,64 H 64 V 0 H 0 Z" id="path16"/>

</clipPath>

</defs>

<g id="g10" style="display:inline" transform="matrix(1.3333333,0,0,-1.3333333,-5.3333332,67.999998)">

<g id="g12">

<g clip-path="url(#clipPath18)" id="g14">

<g id="g20" transform="translate(55,15)">

<path d="M 0,0 H -15.826 C -11.746,2.449 -9,6.904 -9,12 c 0,5.096 -2.746,9.551 -6.826,12 H 3 V 3.114 C 3,1.397 1.654,0 0,0 m -23,24 c 6.617,0 12,-5.383 12,-12 0,-6.617 -5.383,-12 -12,-12 -6.617,0 -12,5.383 -12,12 0,6.617 5.383,12 12,12 M -46,0 c -1.654,0 -3,1.397 -3,3.114 V 19 h 7 c 0.552,0 1,0.448 1,1 0,0.552 -0.448,1 -1,1 h -7 v 3 h 18.826 C -34.254,21.551 -37,17.096 -37,12 c 0,-5.096 2.746,-9.551 6.826,-12 z m 0,30.914 h 17.404 c 0.326,0 0.633,0.159 0.82,0.427 L -25.916,34 H 0 c 1.654,0 3,-1.397 3,-3.114 V 26 h -52 v 1.8 c 0,1.717 1.346,3.114 3,3.114 M -46,34 h 5 v -1 h -5 z m 11,0 h 3 v -1 h -3 z m 35,2 h -26.436 c -0.326,0 -0.632,-0.159 -0.819,-0.427 l -1.861,-2.659 H -30 V 35 c 0,0.552 -0.448,1 -1,1 h -5 c -0.552,0 -1,-0.448 -1,-1 v -2.086 h -2 V 35 c 0,0.552 -0.448,1 -1,1 h -7 c -0.552,0 -1,-0.448 -1,-1 v -2.52 c -1.763,-0.791 -3,-2.588 -3,-4.68 V 3.114 C -51,0.294 -48.757,-2 -46,-2 H 0 c 2.757,0 5,2.294 5,5.114 V 30.886 C 5,33.706 2.757,36 0,36" id="path22" style="fill:#231f20;fill-opacity:1;fill-rule:nonzero;stroke:none"/>

</g>

<g id="g24" transform="translate(32,33)">

<path d="m 0,0 c 3.309,0 6,-2.691 6,-6 0,-3.309 -2.691,-6 -6,-6 -3.309,0 -6,2.691 -6,6 0,3.309 2.691,6 6,6 m 0,-14 c 4.411,0 8,3.589 8,8 0,4.411 -3.589,8 -8,8 -4.411,0 -8,-3.589 -8,-8 0,-4.411 3.589,-8 8,-8" id="path26" style="fill:#231f20;fill-opacity:1;fill-rule:nonzero;stroke:none"/>

</g>

<g id="g28" transform="translate(55.5371,37)">

<path d="M 0,0 H -5.074 C -5.33,0 -5.537,-0.207 -5.537,-0.463 V -3.537 C -5.537,-3.793 -5.33,-4 -5.074,-4 H 0 c 0.256,0 0.463,0.207 0.463,0.463 v 3.074 C 0.463,-0.207 0.256,0 0,0" id="path30" style="fill:#231f20;fill-opacity:1;fill-rule:nonzero;stroke:none"/>

</g>

</g>

</g>

</g>

</svg>