<svg xmlns="http://www.w3.org/2000/svg" viewBox="0 0 500 500"><g id="freepik--background-simple--inject-2"><path d="M437.4,314.93s51.09-57.42,34.85-157.33-99.67-136.72-155-117.49-67.81,52.7-113,71.84-131.06,6-174,70.29,11.88,170.82,81.67,237.62S359.8,444.84,437.4,314.93Z" style="fill:#280B8B"></path><path d="M437.4,314.93s51.09-57.42,34.85-157.33-99.67-136.72-155-117.49-67.81,52.7-113,71.84-131.06,6-174,70.29,11.88,170.82,81.67,237.62S359.8,444.84,437.4,314.93Z" style="fill:#fff;opacity:0.7000000000000001"></path></g><g id="freepik--Line--inject-2"><line x1="27.19" y1="476.25" x2="461.73" y2="476.25" style="fill:none;stroke:#263238;stroke-miterlimit:10"></line></g><g id="freepik--Plant--inject-2"><line x1="85.32" y1="324.26" x2="101.2" y2="476.05" style="fill:none;stroke:#263238;stroke-miterlimit:10;stroke-width:2px"></line><line x1="98.38" y1="444.91" x2="91.32" y2="437.45" style="fill:none;stroke:#263238;stroke-miterlimit:10;stroke-width:2px"></line><path d="M93.47,439.69a8,8,0,0,0-2.81-6c-1.81-1.62-11.35-5.63-12.26-2.27C77.42,435.08,87.18,442.26,93.47,439.69Z" style="fill:#280B8B;stroke:#263238;stroke-miterlimit:10"></path><line x1="93.47" y1="439.69" x2="84.39" y2="434.03" style="fill:none;stroke:#263238;stroke-miterlimit:10;stroke-width:0.5px"></line><line x1="100.15" y1="461.88" x2="93.09" y2="454.42" style="fill:none;stroke:#263238;stroke-miterlimit:10;stroke-width:2px"></line><path d="M95.24,456.66a8,8,0,0,0-2.81-6c-1.81-1.62-11.35-5.63-12.25-2.27C79.19,452.05,89,459.22,95.24,456.66Z" style="fill:#280B8B;stroke:#263238;stroke-miterlimit:10"></path><line x1="95.24" y1="456.66" x2="86.16" y2="451" style="fill:none;stroke:#263238;stroke-miterlimit:10;stroke-width:0.5px"></line><line x1="94.06" y1="403.5" x2="87" y2="396.05" style="fill:none;stroke:#263238;stroke-miterlimit:10;stroke-width:2px"></line><path d="M89.15,398.28a8,8,0,0,0-2.81-6C84.52,390.68,75,386.66,74.08,390,73.1,393.68,82.86,400.85,89.15,398.28Z" style="fill:#280B8B;stroke:#263238;stroke-miterlimit:10"></path><line x1="89.15" y1="398.28" x2="80.07" y2="392.63" style="fill:none;stroke:#263238;stroke-miterlimit:10;stroke-width:0.5px"></line><line x1="95.83" y1="420.47" x2="88.77" y2="413.02" style="fill:none;stroke:#263238;stroke-miterlimit:10;stroke-width:2px"></line><path d="M90.92,415.25a8,8,0,0,0-2.81-6c-1.81-1.62-11.35-5.63-12.26-2.27C74.87,410.64,84.63,417.82,90.92,415.25Z" style="fill:#280B8B;stroke:#263238;stroke-miterlimit:10"></path><line x1="90.92" y1="415.25" x2="81.84" y2="409.59" style="fill:none;stroke:#263238;stroke-miterlimit:10;stroke-width:0.5px"></line><line x1="91.18" y1="375.94" x2="84.12" y2="368.48" style="fill:none;stroke:#263238;stroke-miterlimit:10;stroke-width:2px"></line><path d="M86.27,370.72a8,8,0,0,0-2.81-6c-1.81-1.62-11.35-5.63-12.25-2.27C70.22,366.11,80,373.29,86.27,370.72Z" style="fill:#280B8B;stroke:#263238;stroke-miterlimit:10"></path><line x1="86.27" y1="370.72" x2="77.19" y2="365.06" style="fill:none;stroke:#263238;stroke-miterlimit:10;stroke-width:0.5px"></line><line x1="88.29" y1="348.26" x2="81.23" y2="340.8" style="fill:none;stroke:#263238;stroke-miterlimit:10;stroke-width:2px"></line><path d="M83.38,343a8,8,0,0,0-2.81-6c-1.81-1.62-11.35-5.63-12.25-2.27C67.33,338.43,77.09,345.6,83.38,343Z" style="fill:#280B8B;stroke:#263238;stroke-miterlimit:10"></path><line x1="83.38" y1="343.03" x2="74.3" y2="337.38" style="fill:none;stroke:#263238;stroke-miterlimit:10;stroke-width:0.5px"></line><line x1="97.19" y1="434.87" x2="102.56" y2="426.12" style="fill:none;stroke:#263238;stroke-miterlimit:10;stroke-width:2px"></line><path d="M100.92,428.75a8,8,0,0,1,1.52-6.44c1.44-2,9.94-7.85,11.52-4.75C115.67,420.93,107.61,430,100.92,428.75Z" style="fill:#280B8B;stroke:#263238;stroke-miterlimit:10"></path><line x1="100.92" y1="428.75" x2="109.1" y2="420.93" style="fill:none;stroke:#263238;stroke-miterlimit:10;stroke-width:0.5px"></line><line x1="92.53" y1="390.22" x2="97.9" y2="381.47" style="fill:none;stroke:#263238;stroke-miterlimit:10;stroke-width:2px"></line><path d="M96.26,384.09a8,8,0,0,1,1.52-6.43c1.44-2,9.94-7.86,11.52-4.76C111,376.27,103,385.31,96.26,384.09Z" style="fill:#280B8B;stroke:#263238;stroke-miterlimit:10"></path><line x1="96.26" y1="384.09" x2="104.44" y2="376.28" style="fill:none;stroke:#263238;stroke-miterlimit:10;stroke-width:0.5px"></line><line x1="90.49" y1="370.59" x2="95.85" y2="361.84" style="fill:none;stroke:#263238;stroke-miterlimit:10;stroke-width:2px"></line><path d="M94.22,364.47A8,8,0,0,1,95.73,358c1.44-1.95,9.94-7.85,11.52-4.75C109,356.65,100.9,365.69,94.22,364.47Z" style="fill:#280B8B;stroke:#263238;stroke-miterlimit:10"></path><line x1="94.22" y1="364.47" x2="102.39" y2="356.66" style="fill:none;stroke:#263238;stroke-miterlimit:10;stroke-width:0.5px"></line><line x1="87.48" y1="341.83" x2="92.85" y2="333.08" style="fill:none;stroke:#263238;stroke-miterlimit:10;stroke-width:2px"></line><path d="M91.21,335.7a8,8,0,0,1,1.52-6.44c1.44-1.95,9.94-7.85,11.52-4.75C106,327.88,97.9,336.92,91.21,335.7Z" style="fill:#280B8B;stroke:#263238;stroke-miterlimit:10"></path><line x1="91.21" y1="335.7" x2="99.39" y2="327.89" style="fill:none;stroke:#263238;stroke-miterlimit:10;stroke-width:0.5px"></line><path d="M85.19,323.43A8,8,0,0,1,86.7,317c1.44-2,9.94-7.86,11.52-4.76C99.94,315.61,91.87,324.65,85.19,323.43Z" style="fill:#280B8B;stroke:#263238;stroke-miterlimit:10"></path><line x1="85.19" y1="323.43" x2="93.36" y2="315.62" style="fill:none;stroke:#263238;stroke-miterlimit:10;stroke-width:0.5px"></line><path d="M85.66,323.77a8,8,0,0,1-6.24-2.18c-1.8-1.63-6.77-10.71-3.52-11.95C79.43,308.28,87.57,317.26,85.66,323.77Z" style="fill:#280B8B;stroke:#263238;stroke-miterlimit:10"></path><line x1="85.66" y1="323.77" x2="78.75" y2="314.82" style="fill:none;stroke:#263238;stroke-miterlimit:10;stroke-width:0.5px"></line><line x1="126.39" y1="344.81" x2="113.25" y2="476.05" style="fill:none;stroke:#263238;stroke-miterlimit:10;stroke-width:2px"></line><line x1="114.33" y1="465.56" x2="108.96" y2="456.81" style="fill:none;stroke:#263238;stroke-miterlimit:10;stroke-width:2px"></line><path d="M110.59,459.44a8,8,0,0,0-1.51-6.44c-1.44-1.95-10-7.84-11.52-4.74C95.84,451.63,103.91,460.66,110.59,459.44Z" style="fill:#280B8B;stroke:#263238;stroke-miterlimit:10"></path><line x1="110.59" y1="459.44" x2="102.88" y2="452.03" style="fill:none;stroke:#263238;stroke-miterlimit:10;stroke-width:0.5px"></line><line x1="118.63" y1="424.15" x2="113.25" y2="415.4" style="fill:none;stroke:#263238;stroke-miterlimit:10;stroke-width:2px"></line><path d="M114.89,418a8,8,0,0,0-1.52-6.44c-1.43-1.95-9.94-7.84-11.52-4.74C100.14,410.22,108.21,419.25,114.89,418Z" style="fill:#280B8B;stroke:#263238;stroke-miterlimit:10"></path><line x1="114.89" y1="418.03" x2="107.17" y2="410.63" style="fill:none;stroke:#263238;stroke-miterlimit:10;stroke-width:0.5px"></line><line x1="116.86" y1="441.12" x2="111.49" y2="432.37" style="fill:none;stroke:#263238;stroke-miterlimit:10;stroke-width:2px"></line><path d="M113.13,435a8,8,0,0,0-1.52-6.44c-1.44-1.95-9.94-7.84-11.52-4.74C98.38,427.19,106.45,436.22,113.13,435Z" style="fill:#280B8B;stroke:#263238;stroke-miterlimit:10"></path><line x1="113.13" y1="435" x2="105.41" y2="427.6" style="fill:none;stroke:#263238;stroke-miterlimit:10;stroke-width:0.5px"></line><line x1="121.49" y1="396.59" x2="116.11" y2="387.84" style="fill:none;stroke:#263238;stroke-miterlimit:10;stroke-width:2px"></line><path d="M117.75,390.47a8,8,0,0,0-1.51-6.44c-1.44-2-9.95-7.85-11.53-4.75C103,382.65,111.07,391.68,117.75,390.47Z" style="fill:#280B8B;stroke:#263238;stroke-miterlimit:10"></path><line x1="117.75" y1="390.47" x2="110.03" y2="383.06" style="fill:none;stroke:#263238;stroke-miterlimit:10;stroke-width:0.5px"></line><line x1="124.36" y1="368.9" x2="118.99" y2="360.15" style="fill:none;stroke:#263238;stroke-miterlimit:10;stroke-width:2px"></line><path d="M120.62,362.78a8,8,0,0,0-1.51-6.44c-1.44-1.95-10-7.84-11.52-4.74C105.87,355,113.94,364,120.62,362.78Z" style="fill:#280B8B;stroke:#263238;stroke-miterlimit:10"></path><line x1="120.62" y1="362.78" x2="112.91" y2="355.38" style="fill:none;stroke:#263238;stroke-miterlimit:10;stroke-width:0.5px"></line><line x1="115.23" y1="455.49" x2="122.29" y2="448.03" style="fill:none;stroke:#263238;stroke-miterlimit:10;stroke-width:2px"></line><path d="M120.15,450.27a8,8,0,0,1,2.8-6c1.81-1.62,11.35-5.64,12.25-2.28C136.19,445.65,126.43,452.83,120.15,450.27Z" style="fill:#280B8B;stroke:#263238;stroke-miterlimit:10"></path><line x1="120.15" y1="450.27" x2="129.75" y2="444.31" style="fill:none;stroke:#263238;stroke-miterlimit:10;stroke-width:0.5px"></line><line x1="119.87" y1="410.84" x2="126.92" y2="403.38" style="fill:none;stroke:#263238;stroke-miterlimit:10;stroke-width:2px"></line><path d="M124.78,405.61a8,8,0,0,1,2.81-6c1.81-1.62,11.34-5.63,12.25-2.28C140.82,401,131.07,408.18,124.78,405.61Z" style="fill:#280B8B;stroke:#263238;stroke-miterlimit:10"></path><line x1="124.78" y1="405.61" x2="134.39" y2="399.65" style="fill:none;stroke:#263238;stroke-miterlimit:10;stroke-width:0.5px"></line><line x1="121.9" y1="391.21" x2="128.96" y2="383.75" style="fill:none;stroke:#263238;stroke-miterlimit:10;stroke-width:2px"></line><path d="M126.82,386a8,8,0,0,1,2.8-6c1.81-1.62,11.35-5.64,12.25-2.28C142.86,381.37,133.1,388.55,126.82,386Z" style="fill:#280B8B;stroke:#263238;stroke-miterlimit:10"></path><line x1="126.82" y1="385.99" x2="136.42" y2="380.03" style="fill:none;stroke:#263238;stroke-miterlimit:10;stroke-width:0.5px"></line><line x1="124.89" y1="362.44" x2="131.94" y2="354.98" style="fill:none;stroke:#263238;stroke-miterlimit:10;stroke-width:2px"></line><path d="M129.8,357.22a8,8,0,0,1,2.81-6c1.81-1.62,11.34-5.64,12.25-2.28C145.84,352.6,136.09,359.78,129.8,357.22Z" style="fill:#280B8B;stroke:#263238;stroke-miterlimit:10"></path><line x1="129.8" y1="357.22" x2="139.41" y2="351.26" style="fill:none;stroke:#263238;stroke-miterlimit:10;stroke-width:0.5px"></line><path d="M126.43,344a8,8,0,0,1,2.81-6c1.81-1.62,11.34-5.63,12.25-2.27C142.47,339.36,132.72,346.54,126.43,344Z" style="fill:#280B8B;stroke:#263238;stroke-miterlimit:10"></path><line x1="126.43" y1="343.97" x2="136.04" y2="338.01" style="fill:none;stroke:#263238;stroke-miterlimit:10;stroke-width:0.5px"></line><path d="M126.82,344.4a8,8,0,0,1-5.66-3.42c-1.42-2-4.41-11.87-1-12.42C123.92,328,130,338.42,126.82,344.4Z" style="fill:#280B8B;stroke:#263238;stroke-miterlimit:10"></path><line x1="126.82" y1="344.4" x2="121.9" y2="334.22" style="fill:none;stroke:#263238;stroke-miterlimit:10;stroke-width:0.5px"></line><line x1="108.65" y1="284.05" x2="107.67" y2="476.28" style="fill:none;stroke:#263238;stroke-miterlimit:10;stroke-width:2px"></line><line x1="108.8" y1="444.37" x2="102.55" y2="436.22" style="fill:none;stroke:#263238;stroke-miterlimit:10;stroke-width:2px"></line><path d="M104.45,438.66a8,8,0,0,0-2.17-6.24c-1.64-1.8-10.7-6.78-12-3.54C89,432.42,97.93,440.56,104.45,438.66Z" style="fill:#280B8B;stroke:#263238;stroke-miterlimit:10"></path><line x1="104.45" y1="438.66" x2="96.01" y2="432.09" style="fill:none;stroke:#263238;stroke-miterlimit:10;stroke-width:0.5px"></line><line x1="108.8" y1="408.91" x2="102.55" y2="400.76" style="fill:none;stroke:#263238;stroke-miterlimit:10;stroke-width:2px"></line><path d="M104.45,403.2a8,8,0,0,0-2.17-6.24c-1.64-1.8-10.7-6.78-12-3.53C89,397,97.93,405.1,104.45,403.2Z" style="fill:#280B8B;stroke:#263238;stroke-miterlimit:10"></path><line x1="104.45" y1="403.2" x2="96.01" y2="396.63" style="fill:none;stroke:#263238;stroke-miterlimit:10;stroke-width:0.5px"></line><line x1="108.8" y1="367.28" x2="102.55" y2="359.13" style="fill:none;stroke:#263238;stroke-miterlimit:10;stroke-width:2px"></line><path d="M104.45,361.57a8,8,0,0,0-2.17-6.24c-1.64-1.8-10.7-6.78-12-3.53C89,355.33,97.93,363.47,104.45,361.57Z" style="fill:#280B8B;stroke:#263238;stroke-miterlimit:10"></path><line x1="104.45" y1="361.57" x2="96.01" y2="355" style="fill:none;stroke:#263238;stroke-miterlimit:10;stroke-width:0.5px"></line><line x1="108.8" y1="339.56" x2="102.55" y2="331.42" style="fill:none;stroke:#263238;stroke-miterlimit:10;stroke-width:2px"></line><path d="M104.45,333.86a8,8,0,0,0-2.17-6.25c-1.64-1.79-10.7-6.77-12-3.53C89,327.61,97.93,335.76,104.45,333.86Z" style="fill:#280B8B;stroke:#263238;stroke-miterlimit:10"></path><line x1="104.45" y1="333.86" x2="96.01" y2="327.29" style="fill:none;stroke:#263238;stroke-miterlimit:10;stroke-width:0.5px"></line><line x1="108.8" y1="311.73" x2="102.55" y2="303.58" style="fill:none;stroke:#263238;stroke-miterlimit:10;stroke-width:2px"></line><path d="M104.45,306a8,8,0,0,0-2.17-6.25c-1.64-1.8-10.7-6.78-12-3.53C89,299.78,97.93,307.93,104.45,306Z" style="fill:#280B8B;stroke:#263238;stroke-miterlimit:10"></path><line x1="104.45" y1="306.03" x2="96.01" y2="299.46" style="fill:none;stroke:#263238;stroke-miterlimit:10;stroke-width:0.5px"></line><line x1="108.66" y1="455.19" x2="114.9" y2="447.05" style="fill:none;stroke:#263238;stroke-miterlimit:10;stroke-width:2px"></line><path d="M113,449.49a8,8,0,0,1,2.18-6.25c1.63-1.79,10.7-6.77,11.95-3.53C128.48,443.24,119.52,451.39,113,449.49Z" style="fill:#280B8B;stroke:#263238;stroke-miterlimit:10"></path><line x1="113" y1="449.49" x2="121.94" y2="442.57" style="fill:none;stroke:#263238;stroke-miterlimit:10;stroke-width:0.5px"></line><line x1="108.66" y1="398.8" x2="114.9" y2="390.65" style="fill:none;stroke:#263238;stroke-miterlimit:10;stroke-width:2px"></line><path d="M113,393.1a8,8,0,0,1,2.18-6.25c1.63-1.8,10.7-6.78,11.95-3.53C128.48,386.85,119.52,395,113,393.1Z" style="fill:#280B8B;stroke:#263238;stroke-miterlimit:10"></path><line x1="113" y1="393.1" x2="121.94" y2="386.17" style="fill:none;stroke:#263238;stroke-miterlimit:10;stroke-width:0.5px"></line><line x1="108.66" y1="370.96" x2="114.9" y2="362.82" style="fill:none;stroke:#263238;stroke-miterlimit:10;stroke-width:2px"></line><path d="M113,365.26a8,8,0,0,1,2.18-6.25c1.63-1.79,10.7-6.77,11.95-3.53C128.48,359,119.52,367.16,113,365.26Z" style="fill:#280B8B;stroke:#263238;stroke-miterlimit:10"></path><line x1="113" y1="365.26" x2="121.94" y2="358.34" style="fill:none;stroke:#263238;stroke-miterlimit:10;stroke-width:0.5px"></line><line x1="108.66" y1="334.17" x2="114.9" y2="326.03" style="fill:none;stroke:#263238;stroke-miterlimit:10;stroke-width:2px"></line><path d="M113,328.47a8,8,0,0,1,2.18-6.25c1.63-1.79,10.7-6.77,11.95-3.53C128.48,322.22,119.52,330.37,113,328.47Z" style="fill:#280B8B;stroke:#263238;stroke-miterlimit:10"></path><line x1="113" y1="328.47" x2="121.94" y2="321.55" style="fill:none;stroke:#263238;stroke-miterlimit:10;stroke-width:0.5px"></line><line x1="108.66" y1="305.25" x2="114.9" y2="297.1" style="fill:none;stroke:#263238;stroke-miterlimit:10;stroke-width:2px"></line><path d="M113,299.55a8,8,0,0,1,2.18-6.25c1.63-1.8,10.7-6.78,11.95-3.53C128.48,293.3,119.52,301.45,113,299.55Z" style="fill:#280B8B;stroke:#263238;stroke-miterlimit:10"></path><line x1="113" y1="299.55" x2="121.94" y2="292.63" style="fill:none;stroke:#263238;stroke-miterlimit:10;stroke-width:0.5px"></line><path d="M108.28,286.72a8,8,0,0,1,2.18-6.25c1.63-1.8,10.7-6.77,12-3.53C123.76,280.47,114.8,288.62,108.28,286.72Z" style="fill:#280B8B;stroke:#263238;stroke-miterlimit:10"></path><line x1="108.28" y1="286.72" x2="117.22" y2="279.8" style="fill:none;stroke:#263238;stroke-miterlimit:10;stroke-width:0.5px"></line><path d="M108.72,287.1a8,8,0,0,1-6-2.81c-1.61-1.82-5.61-11.36-2.25-12.26C104.13,271.05,111.29,280.82,108.72,287.1Z" style="fill:#280B8B;stroke:#263238;stroke-miterlimit:10"></path><line x1="108.72" y1="287.1" x2="102.77" y2="277.49" style="fill:none;stroke:#263238;stroke-miterlimit:10;stroke-width:0.5px"></line></g><g id="freepik--Picture--inject-2"><rect x="289.18" y="55.8" width="161.17" height="223.8" style="fill:none;stroke:#263238;stroke-miterlimit:10"></rect><rect x="295.52" y="64.6" width="148.49" height="206.19" style="fill:none;stroke:#263238;stroke-miterlimit:10"></rect><rect x="336.22" y="121.11" width="67.1" height="93.17" style="fill:none;stroke:#263238;stroke-miterlimit:10"></rect></g><g id="freepik--Character--inject-2"><path d="M266.31,113.39s-10.16-2-19.07,12.11-8.37,33-7.84,51-.46,41.3-1,49.5-9.47,16.09-9.47,16.09l127.52,3a438.79,438.79,0,0,0-16.31-42.28C330.36,181,321.89,146,321.89,146s12.48,2.85,11.41-4.27-8.2-15.15-27.8-25.3S272.9,106.62,266.31,113.39Z" style="fill:#263238;stroke:#263238;stroke-miterlimit:10"></path><polygon points="218.79 476 223.81 439.4 374.35 428.18 387.05 476.29 218.79 476" style="fill:#263238;stroke:#263238;stroke-miterlimit:10"></polygon><path d="M366.05,386.54a228,228,0,0,1-9.9-23.22c2.65-6.39,11.55-22.67,11.55-22.67l5.28-9.51s-1-2.93-.75-10.71a87.35,87.35,0,0,0-.31-12s5.55-45.17,5.55-51.51,0-13.73-1.58-15.85-12.42-9.5-34.6-16.64-29.59-7.39-31.17-7.92-29.58,1.85-29.58,1.85-43.85,7.39-46,9.77S240.39,347,240.39,347s-3.29,8.51-4.07,14.89c-3.74,10.63-15.27,44.45-16.6,60.58-1.58,19.28-1.32,24.83-1.32,24.83s34.86,15.84,52,19.28,32.23,6.34,32.23,6.34l5.81-15.59,7.39,15.32s29.58-11.09,39.88-18.49,23.78-24.56,23.78-24.56S372.38,399.22,366.05,386.54Z" style="fill:#280B8B;stroke:#263238;stroke-miterlimit:10"></path><path d="M360,244s-9.06,12-11,18.11" style="fill:none;stroke:#263238;stroke-miterlimit:10"></path><path d="M318.57,367.76s13.08,2.95,15.61,4.85,12.45,4.85,16.67,4.85a87.08,87.08,0,0,0,10.76-1l-6.75-7.6S328.7,365,324.69,365A8,8,0,0,0,318.57,367.76Z" style="fill:#263238;stroke:#263238;stroke-miterlimit:10"></path><path d="M306.81,438.48c.54,5.45.89,9,.89,9.37" style="fill:none;stroke:#263238;stroke-miterlimit:10"></path><path d="M300.12,373.52s4,38.5,6.2,60.09" style="fill:none;stroke:#263238;stroke-miterlimit:10"></path><path d="M306.83,310.3c.12,1,.25,1.91.38,2.62,1.06,5.54-.26,12.41-2.9,14.26s-5,10-4,11.09" style="fill:none;stroke:#263238;stroke-miterlimit:10"></path><path d="M305.63,290.73s.25,7.87.75,14.59" style="fill:none;stroke:#263238;stroke-miterlimit:10"></path><path d="M287.32,208.37s-3.55-.22-4.44.89-7.75,9.53-8,11.3-.67,29-.67,31.24,3.1,9.31,4.65,5.32,2.66-9.08,4.22-11.74,5.53,2.88,5.53,2.88l26.15,7.09s8.42-4.88,10-8,1.33,9.31,3.33,9.75,3.77-2.88,1.77-10.41-1.55-21.94-4.43-30.58-4.88-9.31-9.53-9.53S287.32,208.37,287.32,208.37Z" style="fill:#280B8B;stroke:#263238;stroke-miterlimit:10"></path><path d="M283.77,192.26s1.78,21,1.78,24.59-.89,18.17,2.67,27.79,13.72,41.16,15.86,42.41,4.45-1.78,8.37-11.94S325.28,250,323.68,235s-8.56-44.72-8.56-44.72Z" style="fill:#fff;stroke:#263238;stroke-miterlimit:10"></path><polygon points="305.57 210.68 285.54 218.81 284.38 206.03 305.57 210.68" style="fill:#263238;stroke:#263238;stroke-miterlimit:10"></polygon><path d="M291.16,253c4.5,13.05,11.22,33.05,12.92,34,2.14,1.25,4.45-1.78,8.37-11.94,2.07-5.35,5.51-12,8.08-19.35A29.92,29.92,0,0,1,291.16,253Z" style="fill:#263238;stroke:#263238;stroke-miterlimit:10"></path><path d="M261.86,172s11.08,27.39,16,31.34,21.69,10.29,27.54,9.82,11.87-4.28,13.46-7.92,8.23-13,7.12-20.57-8.39-35.46-8.39-35.46S302.69,147,292.4,143.5s-16.14-13-16.14-13-1.9,18.36-6.33,28.33S261.86,172,261.86,172Z" style="fill:#fff;stroke:#263238;stroke-miterlimit:10"></path><path d="M300.28,164.42s1.52,8.28,4.35,10,3.93,2.62,2.84,4.58-4.36,3-5.23,3" style="fill:none;stroke:#263238;stroke-miterlimit:10"></path><path d="M291.34,186.21s6.54,6.32,13.08,5.23" style="fill:none;stroke:#263238;stroke-miterlimit:10"></path><path d="M275.4,165.46s7.21-4.2,12.7-2.08" style="fill:none;stroke:#263238;stroke-miterlimit:10"></path><path d="M300.84,163.09s-1.72-7.37,6.92-9.44" style="fill:none;stroke:#263238;stroke-miterlimit:10"></path><path d="M291.53,172c.64,1.76.29,3.51-.78,3.9s-2.47-.72-3.11-2.49-.29-3.5.79-3.89S290.89,170.22,291.53,172Z" style="fill:#263238"></path><path d="M311.24,165.19c.64,1.76.29,3.51-.79,3.9s-2.46-.72-3.1-2.48-.29-3.51.78-3.9S310.6,163.43,311.24,165.19Z" style="fill:#263238"></path><path d="M261.86,172l-4,11.29s4.27,6.24,6.77,7.31,5.34-1.25,5.34-1.25Z" style="fill:#fff;stroke:#263238;stroke-miterlimit:10"></path><path d="M260.73,339.06s53.09,8.72,65,8.72,22.45-.53,23.77-1.06,18-2.11,19.28.27.8,6.87.8,6.87a29.88,29.88,0,0,1,.79,7.92,12,12,0,0,1-2.11,6.07,3.72,3.72,0,0,1-.53,4c-1.59,2.11-1.85,4-4.76,4.49s-9.5-1.06-10.56-1.32-12.15-1.59-15.06-3.17a37.79,37.79,0,0,0-6.34-2.91,52.81,52.81,0,0,0-6.6-1.06S272.61,371,265,370.49s-12.41-.52-12.41-.52Z" style="fill:#fff;stroke:#263238;stroke-miterlimit:10"></path><path d="M335.63,328.28s4.29,18.75,8,24.28,11.78,13.74,19.1,10.89,9.28-2.14,10.53-15.71.89-23.56-1.07-27.31a43.46,43.46,0,0,0-5.36-7.5Z" style="fill:#280B8B;stroke:#263238;stroke-miterlimit:10"></path><path d="M340.63,230.64s-10-8.74-15-12.67a169.23,169.23,0,0,1-15.17-13.92c-3.57-3.75-5.72-5.71-6.07-2.32s4.82,11.42,5.89,12.85,7.14,8.21,7.14,8.21-7.14,5-8.93,6.43-1.78,3-2.32,7.14,1.43,5.89,4.46,6.78a6.65,6.65,0,0,0,5.54-1.07s7.14,4.82,11.6,5.53,8.57,4.11,8.57,4.11-1.43,66-1.61,67.65,9.46,1.25,18.74-1.79,11.79-6.6,11.79-6.6-12-56.76-15-64.8S344,232.61,340.63,230.64Z" style="fill:#fff;stroke:#263238;stroke-miterlimit:10"></path><path d="M316.18,242.07l-4.64-3.75s-.18,1.61-1.07,2.14" style="fill:#fff;stroke:#263238;stroke-miterlimit:10"></path><path d="M331.53,315.08s.53,14.27,2.32,15.35,15.35-2.15,22.49-4.65,12.32-5.53,12.5-7.85-1.61-8-2.86-11.07-3-2.32-3.75-1.6-7.14,3-16.78,5.53S331.35,312.4,331.53,315.08Z" style="fill:#280B8B;stroke:#263238;stroke-miterlimit:10"></path><path d="M243.84,285.12c-.33-3.63-.6-6.94-.81-9.71" style="fill:#280B8B;stroke:#263238;stroke-miterlimit:10"></path><path d="M249.11,225.49s-27.21,1.59-28.27,6.08-4.22,40.14-5.28,75.27.79,60.75,3.17,61.54,29.58.79,29.58.79l3.44-30.63-2.91-4.49s-2.76-34.78-4.58-53.77" style="fill:#280B8B;stroke:#263238;stroke-miterlimit:10"></path><path d="M246.2,332.73s-5.28,34.6-6.07,36.18-1.32,4.49,1.84,4.23,11.89,2.11,12.95-.27,9.51-28.26,8.71-32-4.49-5-5.81-5.54S247.79,331.4,246.2,332.73Z" style="fill:#280B8B;stroke:#263238;stroke-miterlimit:10"></path><path d="M234.61,317.53c-1.19-1.52-2.16-2.72-2.67-3.29" style="fill:none;stroke:#263238;stroke-miterlimit:10"></path><path d="M227.45,328.5l18.75,4.23s-4.89-6.52-9-11.89" style="fill:none;stroke:#263238;stroke-miterlimit:10"></path><path d="M252.6,193.78s-7.74,45.06-8,65.78,8,32.65,19.4,36.44,21.3-2.84,18.93-6.15-11.83,3.31-15.14-8.52,8.52-21.77,9-45,0-29.34,0-29.34" style="fill:#263238;stroke:#263238;stroke-miterlimit:10"></path></g><g id="freepik--speech-bubble--inject-2"><path d="M233.49,86a28,28,0,0,0-39.41-25.6,28,28,0,0,0-41.23-10.05,28,28,0,0,0-38.19-15.4A28,28,0,0,0,67.57,61.37,38.85,38.85,0,0,0,55.29,127a28,28,0,0,0,44.49,30.29,38.86,38.86,0,0,0,70.22,3.6,31.1,31.1,0,0,0,37-47A28,28,0,0,0,233.49,86Z" style="fill:#263238;stroke:#263238;stroke-miterlimit:10"></path><ellipse cx="210.24" cy="165.5" rx="12.23" ry="9.25" transform="translate(-51.29 109) rotate(-26.02)" style="fill:#263238;stroke:#263238;stroke-miterlimit:10"></ellipse><path d="M213.45,187.59c1.68,3.44,6.73,4.43,11.28,2.21s6.87-6.81,5.19-10.25-6.73-4.43-11.28-2.21S211.77,184.15,213.45,187.59Z" style="fill:#263238;stroke:#263238;stroke-miterlimit:10"></path><path d="M236.8,80a28,28,0,0,0-39.41-25.6,28,28,0,0,0-41.24-10A28,28,0,0,0,118,29,28,28,0,0,0,70.88,55.42a38.86,38.86,0,0,0-12.29,65.66,28,28,0,0,0,44.5,30.29A38.86,38.86,0,0,0,173.3,155a31.1,31.1,0,0,0,37-47A28,28,0,0,0,236.8,80Z" style="fill:#fff;stroke:#263238;stroke-miterlimit:10"></path><ellipse cx="213.54" cy="159.55" rx="12.23" ry="9.25" transform="translate(-48.35 109.85) rotate(-26.02)" style="fill:#fff;stroke:#263238;stroke-miterlimit:10"></ellipse><path d="M216.76,181.64c1.68,3.44,6.73,4.43,11.27,2.22s6.87-6.81,5.19-10.26-6.72-4.43-11.27-2.21S215.08,178.2,216.76,181.64Z" style="fill:#fff;stroke:#263238;stroke-miterlimit:10"></path></g><g id="freepik--light-bulb--inject-2"><path d="M166.26,85.78A30.07,30.07,0,1,0,113.08,105a29.54,29.54,0,0,1,6.85,18.92v4.12h32.51v-4.12a29.45,29.45,0,0,1,6.84-18.9A30,30,0,0,0,166.26,85.78Z" style="fill:#280B8B;stroke:#263238;stroke-miterlimit:10"></path><circle cx="136.16" cy="87.84" r="19.07" style="fill:#fff;opacity:0.44"></circle><rect x="119.93" y="128.07" width="32.51" height="8.04" style="fill:#7d7d7d;stroke:#263238;stroke-linecap:round;stroke-linejoin:round"></rect><path d="M119.93,136.13h32.51a0,0,0,0,1,0,0v3.32a4.73,4.73,0,0,1-4.73,4.73H124.66a4.73,4.73,0,0,1-4.73-4.73v-3.32A0,0,0,0,1,119.93,136.13Z" style="fill:#7d7d7d;stroke:#263238;stroke-linecap:round;stroke-linejoin:round"></path><path d="M124,144.16h24.3a0,0,0,0,1,0,0v1.63a6.41,6.41,0,0,1-6.41,6.41H130.44a6.41,6.41,0,0,1-6.41-6.41v-1.63A0,0,0,0,1,124,144.16Z" style="fill:#fff;stroke:#263238;stroke-linecap:round;stroke-linejoin:round"></path><line x1="170.52" y1="85.94" x2="184.3" y2="85.94" style="fill:none;stroke:#263238;stroke-linecap:round;stroke-linejoin:round"></line><line x1="86.78" y1="85.94" x2="100.73" y2="85.94" style="fill:none;stroke:#263238;stroke-linecap:round;stroke-linejoin:round"></line><line x1="135.54" y1="51" x2="135.54" y2="37.18" style="fill:none;stroke:#263238;stroke-linecap:round;stroke-linejoin:round"></line><line x1="160.51" y1="60.97" x2="170.02" y2="51.46" style="fill:none;stroke:#263238;stroke-linecap:round;stroke-linejoin:round"></line><line x1="101.06" y1="120.42" x2="110.71" y2="110.77" style="fill:none;stroke:#263238;stroke-linecap:round;stroke-linejoin:round"></line><line x1="110.3" y1="60.7" x2="101.06" y2="51.46" style="fill:none;stroke:#263238;stroke-linecap:round;stroke-linejoin:round"></line><line x1="170.02" y1="120.42" x2="160.82" y2="111.22" style="fill:none;stroke:#263238;stroke-linecap:round;stroke-linejoin:round"></line></g></svg>