<svg id="visual" viewBox="0 0 900 400" width="900" height="400" xmlns="http://www.w3.org/2000/svg" xmlns:xlink="http://www.w3.org/1999/xlink" version="1.1"><rect x="0" y="0" width="900" height="400" fill="#fff"></rect><path d="M0 117L21.5 120C43 123 86 129 128.8 130.7C171.7 132.3 214.3 129.7 257.2 129.3C300 129 343 131 385.8 133.2C428.7 135.3 471.3 137.7 514.2 133.8C557 130 600 120 642.8 123.2C685.7 126.3 728.3 142.7 771.2 149.7C814 156.7 857 154.3 878.5 153.2L900 152L900 0L878.5 0C857 0 814 0 771.2 0C728.3 0 685.7 0 642.8 0C600 0 557 0 514.2 0C471.3 0 428.7 0 385.8 0C343 0 300 0 257.2 0C214.3 0 171.7 0 128.8 0C86 0 43 0 21.5 0L0 0Z" fill="#5c14c7"></path><path d="M0 97L21.5 96.8C43 96.7 86 96.3 128.8 100.2C171.7 104 214.3 112 257.2 114.5C300 117 343 114 385.8 113C428.7 112 471.3 113 514.2 111.5C557 110 600 106 642.8 106.5C685.7 107 728.3 112 771.2 113.3C814 114.7 857 112.3 878.5 111.2L900 110L900 0L878.5 0C857 0 814 0 771.2 0C728.3 0 685.7 0 642.8 0C600 0 557 0 514.2 0C471.3 0 428.7 0 385.8 0C343 0 300 0 257.2 0C214.3 0 171.7 0 128.8 0C86 0 43 0 21.5 0L0 0Z" fill="#4f12b8"></path><path d="M0 79L21.5 83.3C43 87.7 86 96.3 128.8 93.5C171.7 90.7 214.3 76.3 257.2 71C300 65.7 343 69.3 385.8 73.5C428.7 77.7 471.3 82.3 514.2 86.5C557 90.7 600 94.3 642.8 92.5C685.7 90.7 728.3 83.3 771.2 83.2C814 83 857 90 878.5 93.5L900 97L900 0L878.5 0C857 0 814 0 771.2 0C728.3 0 685.7 0 642.8 0C600 0 557 0 514.2 0C471.3 0 428.7 0 385.8 0C343 0 300 0 257.2 0C214.3 0 171.7 0 128.8 0C86 0 43 0 21.5 0L0 0Z" fill="#4210a9"></path><path d="M0 59L21.5 59.2C43 59.3 86 59.7 128.8 56.7C171.7 53.7 214.3 47.3 257.2 48.5C300 49.7 343 58.3 385.8 59.5C428.7 60.7 471.3 54.3 514.2 52.8C557 51.3 600 54.7 642.8 52.8C685.7 51 728.3 44 771.2 45.8C814 47.7 857 58.3 878.5 63.7L900 69L900 0L878.5 0C857 0 814 0 771.2 0C728.3 0 685.7 0 642.8 0C600 0 557 0 514.2 0C471.3 0 428.7 0 385.8 0C343 0 300 0 257.2 0C214.3 0 171.7 0 128.8 0C86 0 43 0 21.5 0L0 0Z" fill="#350e9a"></path><path d="M0 48L21.5 47.2C43 46.3 86 44.7 128.8 44C171.7 43.3 214.3 43.7 257.2 40.7C300 37.7 343 31.3 385.8 29.2C428.7 27 471.3 29 514.2 32.3C557 35.7 600 40.3 642.8 42.8C685.7 45.3 728.3 45.7 771.2 42.2C814 38.7 857 31.3 878.5 27.7L900 24L900 0L878.5 0C857 0 814 0 771.2 0C728.3 0 685.7 0 642.8 0C600 0 557 0 514.2 0C471.3 0 428.7 0 385.8 0C343 0 300 0 257.2 0C214.3 0 171.7 0 128.8 0C86 0 43 0 21.5 0L0 0Z" fill="#280b8b"></path></svg>